<?xml version="1.0" encoding="utf-8"?>
<!-- Generator: Adobe Illustrator 19.2.1, SVG Export Plug-In . SVG Version: 6.00 Build 0)  -->
<svg version="1.1" id="Layer_2" xmlns="http://www.w3.org/2000/svg" xmlns:xlink="http://www.w3.org/1999/xlink" x="0px" y="0px"
	 viewBox="0 0 976 82.7" style="enable-background:new 0 0 976 82.7;" xml:space="preserve">
<style type="text/css">
	.st0{fill:#F89A1C;}
	.st1{fill:#77BD4E;}
	.st2{fill:#4D2E91;}
	.st3{fill:#FBCC8D;}
	.st4{fill:#A696C8;}
	.st5{fill:#BBDEA6;}
	.st6{opacity:0.5;clip-path:url(#SVGID_2_);}
</style>
<g>
	<g>
		<path class="st0" d="M130.2,42.2c0,2.4-0.4,4.4-1.1,6.2c-0.7,1.8-1.8,3.2-3.1,4.4c-1.4,1.2-3,2-4.9,2.6c-1.9,0.6-4.1,0.9-6.5,0.9
			c-1.1,0-2.4,0-3.9-0.1c-1.5-0.1-2.9-0.3-4.3-0.6V28.9c1.4-0.3,2.9-0.4,4.4-0.5c1.5-0.1,2.9-0.1,4-0.1c2.3,0,4.5,0.3,6.4,0.8
			c1.9,0.5,3.5,1.4,4.9,2.5c1.4,1.1,2.4,2.6,3.2,4.3C129.9,37.6,130.2,39.7,130.2,42.2z M112.5,50.8c0.3,0,0.6,0,1,0.1
			c0.4,0,0.8,0,1.4,0c3.1,0,5.4-0.8,6.8-2.3c1.5-1.6,2.2-3.7,2.2-6.4c0-2.9-0.7-5-2.1-6.5c-1.4-1.5-3.7-2.2-6.7-2.2
			c-0.4,0-0.9,0-1.3,0c-0.4,0-0.9,0-1.3,0.1V50.8z"/>
		<path class="st0" d="M151.9,45.4c0,1.6-0.2,3.1-0.7,4.5c-0.5,1.4-1.2,2.5-2.1,3.5c-0.9,1-2,1.7-3.2,2.2c-1.2,0.5-2.6,0.8-4.2,0.8
			c-1.5,0-2.9-0.3-4.2-0.8c-1.2-0.5-2.3-1.3-3.2-2.2c-0.9-1-1.6-2.1-2.1-3.5c-0.5-1.4-0.7-2.8-0.7-4.5c0-1.6,0.3-3.1,0.8-4.5
			c0.5-1.3,1.2-2.5,2.1-3.4c0.9-0.9,2-1.7,3.2-2.2c1.2-0.5,2.6-0.8,4.1-0.8c1.5,0,2.9,0.3,4.1,0.8c1.2,0.5,2.3,1.3,3.2,2.2
			c0.9,0.9,1.6,2.1,2.1,3.4C151.7,42.3,151.9,43.8,151.9,45.4z M145.9,45.4c0-1.8-0.4-3.2-1.1-4.3c-0.7-1-1.8-1.6-3.1-1.6
			c-1.3,0-2.4,0.5-3.1,1.6c-0.7,1-1.1,2.5-1.1,4.3c0,1.8,0.4,3.3,1.1,4.3c0.7,1.1,1.8,1.6,3.1,1.6c1.3,0,2.4-0.5,3.1-1.6
			C145.6,48.7,145.9,47.3,145.9,45.4z"/>
		<path class="st0" d="M171.7,55.1c-1,0.3-2.3,0.6-3.9,0.8c-1.6,0.2-3.2,0.4-5,0.4c-1.8,0-3.2-0.2-4.4-0.7c-1.2-0.5-2.1-1.1-2.8-2
			c-0.7-0.9-1.2-1.9-1.5-3.1c-0.3-1.2-0.4-2.5-0.4-3.9V35.1h5.9V46c0,1.9,0.2,3.3,0.7,4.1c0.5,0.8,1.4,1.3,2.8,1.3
			c0.4,0,0.9,0,1.3-0.1c0.5,0,0.9-0.1,1.3-0.1v-16h5.9V55.1z"/>
		<path class="st0" d="M192.7,53.3c0,3.4-0.9,5.9-2.6,7.6c-1.7,1.6-4.4,2.5-8,2.5c-1.3,0-2.5-0.1-3.8-0.3c-1.3-0.2-2.4-0.5-3.5-0.9
			l1-4.9c0.9,0.4,1.9,0.7,2.9,0.9c1,0.2,2.2,0.3,3.4,0.3c1.7,0,2.9-0.4,3.6-1.1c0.7-0.7,1-1.7,1-2.8v-0.7c-0.6,0.3-1.3,0.5-2,0.7
			c-0.7,0.1-1.4,0.2-2.2,0.2c-2.9,0-5.1-0.8-6.6-2.5c-1.5-1.7-2.3-4.1-2.3-7.1c0-1.5,0.2-2.9,0.7-4.2c0.5-1.2,1.2-2.3,2.1-3.2
			c0.9-0.9,2-1.6,3.3-2.1c1.3-0.5,2.8-0.7,4.5-0.7c0.7,0,1.4,0,2.2,0.1c0.7,0.1,1.5,0.2,2.2,0.3c0.7,0.1,1.4,0.2,2.1,0.4
			c0.7,0.1,1.3,0.3,1.8,0.5V53.3z M179.8,44.8c0,3.3,1.3,4.9,4,4.9c0.6,0,1.2-0.1,1.7-0.2c0.5-0.2,1-0.3,1.3-0.6v-9.4
			c-0.3-0.1-0.6-0.1-1-0.1c-0.4,0-0.9-0.1-1.4-0.1c-1.6,0-2.7,0.5-3.5,1.5C180.2,41.9,179.8,43.2,179.8,44.8z"/>
		<path class="st1" d="M208.6,56.4c-4.4,0-7.8-1.2-10.2-3.7c-2.3-2.5-3.5-6-3.5-10.5c0-2.3,0.4-4.3,1.1-6.1c0.7-1.8,1.7-3.3,2.9-4.5
			c1.2-1.2,2.7-2.1,4.4-2.8c1.7-0.6,3.6-0.9,5.6-0.9c1.2,0,2.2,0.1,3.2,0.3c0.9,0.2,1.8,0.4,2.5,0.6c0.7,0.2,1.3,0.5,1.8,0.7
			c0.5,0.2,0.8,0.4,1,0.6l-1.8,5c-0.8-0.4-1.8-0.8-2.9-1.1c-1.1-0.3-2.4-0.5-3.8-0.5c-0.9,0-1.9,0.2-2.8,0.5
			c-0.9,0.3-1.7,0.8-2.4,1.5c-0.7,0.7-1.3,1.6-1.7,2.7c-0.4,1.1-0.6,2.4-0.6,4c0,1.3,0.1,2.4,0.4,3.5c0.3,1.1,0.7,2,1.3,2.8
			c0.6,0.8,1.4,1.4,2.4,1.9c1,0.5,2.2,0.7,3.6,0.7c0.9,0,1.7-0.1,2.4-0.2c0.7-0.1,1.3-0.2,1.9-0.4s1-0.3,1.5-0.5
			c0.4-0.2,0.8-0.4,1.1-0.5l1.7,4.9c-0.9,0.5-2.1,1-3.7,1.4C212.5,56.2,210.7,56.4,208.6,56.4z"/>
		<path class="st1" d="M238.3,45.4c0,1.6-0.2,3.1-0.7,4.5c-0.5,1.4-1.2,2.5-2.1,3.5c-0.9,1-2,1.7-3.2,2.2c-1.2,0.5-2.6,0.8-4.2,0.8
			c-1.5,0-2.9-0.3-4.2-0.8c-1.2-0.5-2.3-1.3-3.2-2.2c-0.9-1-1.6-2.1-2.1-3.5c-0.5-1.4-0.7-2.8-0.7-4.5c0-1.6,0.3-3.1,0.8-4.5
			c0.5-1.3,1.2-2.5,2.1-3.4c0.9-0.9,2-1.7,3.2-2.2c1.2-0.5,2.6-0.8,4.1-0.8c1.5,0,2.9,0.3,4.1,0.8c1.2,0.5,2.3,1.3,3.2,2.2
			c0.9,0.9,1.6,2.1,2.1,3.4C238,42.3,238.3,43.8,238.3,45.4z M232.3,45.4c0-1.8-0.4-3.2-1.1-4.3c-0.7-1-1.8-1.6-3.1-1.6
			c-1.3,0-2.4,0.5-3.1,1.6c-0.7,1-1.1,2.5-1.1,4.3c0,1.8,0.4,3.3,1.1,4.3c0.7,1.1,1.8,1.6,3.1,1.6c1.3,0,2.4-0.5,3.1-1.6
			C231.9,48.7,232.3,47.3,232.3,45.4z"/>
		<path class="st2" d="M253.7,56.4c-4.4,0-7.8-1.2-10.2-3.7c-2.3-2.5-3.5-6-3.5-10.5c0-2.3,0.4-4.3,1.1-6.1c0.7-1.8,1.7-3.3,2.9-4.5
			c1.2-1.2,2.7-2.1,4.4-2.8c1.7-0.6,3.6-0.9,5.6-0.9c1.2,0,2.2,0.1,3.2,0.3c0.9,0.2,1.8,0.4,2.5,0.6c0.7,0.2,1.3,0.5,1.8,0.7
			c0.5,0.2,0.8,0.4,1,0.6l-1.8,5c-0.8-0.4-1.8-0.8-2.9-1.1c-1.1-0.3-2.4-0.5-3.8-0.5c-0.9,0-1.9,0.2-2.8,0.5
			c-0.9,0.3-1.7,0.8-2.4,1.5c-0.7,0.7-1.3,1.6-1.7,2.7c-0.4,1.1-0.6,2.4-0.6,4c0,1.3,0.1,2.4,0.4,3.5c0.3,1.1,0.7,2,1.3,2.8
			c0.6,0.8,1.4,1.4,2.4,1.9c1,0.5,2.2,0.7,3.6,0.7c0.9,0,1.7-0.1,2.4-0.2c0.7-0.1,1.3-0.2,1.9-0.4c0.6-0.1,1-0.3,1.5-0.5
			c0.4-0.2,0.8-0.4,1.1-0.5l1.7,4.9c-0.9,0.5-2.1,1-3.7,1.4C257.6,56.2,255.8,56.4,253.7,56.4z"/>
		<path class="st2" d="M283.3,45.4c0,1.6-0.2,3.1-0.7,4.5c-0.5,1.4-1.2,2.5-2,3.5c-0.9,1-2,1.7-3.2,2.2c-1.2,0.5-2.6,0.8-4.2,0.8
			c-1.5,0-2.9-0.3-4.2-0.8c-1.2-0.5-2.3-1.3-3.2-2.2c-0.9-1-1.6-2.1-2.1-3.5c-0.5-1.4-0.7-2.8-0.7-4.5c0-1.6,0.3-3.1,0.8-4.5
			c0.5-1.3,1.2-2.5,2.1-3.4c0.9-0.9,2-1.7,3.2-2.2c1.2-0.5,2.6-0.8,4.1-0.8c1.5,0,2.9,0.3,4.1,0.8c1.2,0.5,2.3,1.3,3.2,2.2
			c0.9,0.9,1.6,2.1,2.1,3.4C283.1,42.3,283.3,43.8,283.3,45.4z M277.3,45.4c0-1.8-0.4-3.2-1.1-4.3c-0.7-1-1.8-1.6-3.1-1.6
			c-1.3,0-2.4,0.5-3.1,1.6c-0.7,1-1.1,2.5-1.1,4.3c0,1.8,0.4,3.3,1.1,4.3c0.7,1.1,1.8,1.6,3.1,1.6c1.3,0,2.4-0.5,3.1-1.6
			C277,48.7,277.3,47.3,277.3,45.4z"/>
		<path class="st2" d="M285.9,35.8c1-0.3,2.3-0.6,3.9-0.8c1.6-0.2,3.2-0.4,5-0.4c1.8,0,3.2,0.2,4.4,0.7c1.2,0.5,2.1,1.1,2.8,2
			c0.7,0.8,1.2,1.8,1.5,3c0.3,1.2,0.4,2.4,0.4,3.9v11.7h-5.9v-11c0-1.9-0.3-3.2-0.7-4c-0.5-0.8-1.4-1.2-2.8-1.2
			c-0.4,0-0.9,0-1.3,0.1c-0.5,0-0.9,0.1-1.3,0.1v16h-5.9V35.8z"/>
		<path class="st2" d="M307.1,35.8c1-0.3,2.3-0.6,3.9-0.8c1.6-0.2,3.2-0.4,5-0.4c1.8,0,3.2,0.2,4.4,0.7c1.2,0.5,2.1,1.1,2.8,2
			c0.7,0.8,1.2,1.8,1.5,3c0.3,1.2,0.4,2.4,0.4,3.9v11.7h-5.9v-11c0-1.9-0.3-3.2-0.7-4c-0.5-0.8-1.4-1.2-2.8-1.2
			c-0.4,0-0.9,0-1.3,0.1c-0.5,0-0.9,0.1-1.3,0.1v16h-5.9V35.8z"/>
		<path class="st2" d="M326.6,45.6c0-1.8,0.3-3.4,0.8-4.8c0.6-1.4,1.3-2.5,2.2-3.4c0.9-0.9,2-1.6,3.2-2.1c1.2-0.5,2.4-0.7,3.7-0.7
			c2.9,0,5.3,0.9,7,2.7c1.7,1.8,2.6,4.4,2.6,7.9c0,0.3,0,0.7,0,1.1c0,0.4-0.1,0.8-0.1,1.1h-13.3c0.1,1.2,0.7,2.2,1.7,2.9
			c1,0.7,2.3,1.1,4,1.1c1.1,0,2.1-0.1,3.2-0.3c1-0.2,1.9-0.4,2.5-0.7l0.8,4.8c-0.3,0.2-0.7,0.3-1.3,0.5c-0.5,0.2-1.1,0.3-1.8,0.4
			c-0.6,0.1-1.3,0.2-2.1,0.3c-0.7,0.1-1.5,0.1-2.2,0.1c-1.9,0-3.5-0.3-4.9-0.8c-1.4-0.6-2.5-1.3-3.4-2.3c-0.9-1-1.6-2.1-2-3.4
			C326.8,48.6,326.6,47.2,326.6,45.6z M340.4,43.4c0-0.5-0.1-1-0.3-1.5c-0.1-0.5-0.4-0.9-0.7-1.3c-0.3-0.4-0.7-0.7-1.1-0.9
			c-0.5-0.2-1-0.4-1.7-0.4c-0.7,0-1.2,0.1-1.7,0.3c-0.5,0.2-0.9,0.5-1.2,0.9c-0.3,0.4-0.6,0.8-0.7,1.3c-0.2,0.5-0.3,1-0.4,1.5H340.4
			z"/>
		<path class="st2" d="M347.7,45.5c0-1.5,0.2-2.9,0.7-4.2c0.5-1.3,1.2-2.5,2.1-3.5c0.9-1,2-1.8,3.4-2.3c1.3-0.6,2.8-0.9,4.5-0.9
			c1.1,0,2.1,0.1,3,0.3c0.9,0.2,1.8,0.5,2.7,0.8l-1.2,4.7c-0.6-0.2-1.2-0.4-1.8-0.6c-0.7-0.2-1.4-0.2-2.2-0.2c-1.7,0-3,0.5-3.9,1.6
			c-0.9,1.1-1.3,2.5-1.3,4.3c0,1.9,0.4,3.3,1.2,4.3c0.8,1,2.2,1.5,4.2,1.5c0.7,0,1.5-0.1,2.3-0.2c0.8-0.1,1.6-0.3,2.2-0.6l0.8,4.8
			c-0.7,0.3-1.5,0.5-2.6,0.7c-1,0.2-2.2,0.3-3.4,0.3c-1.9,0-3.5-0.3-4.9-0.8c-1.4-0.6-2.5-1.3-3.4-2.3c-0.9-1-1.5-2.1-1.9-3.4
			C347.9,48.5,347.7,47,347.7,45.5z"/>
		<path class="st2" d="M366.2,30l5.9-0.9v6.1h7.1V40h-7.1v7.3c0,1.2,0.2,2.2,0.7,3c0.4,0.7,1.3,1.1,2.6,1.1c0.6,0,1.3-0.1,2-0.2
			c0.7-0.1,1.3-0.3,1.8-0.5l0.8,4.6c-0.7,0.3-1.5,0.5-2.4,0.7c-0.9,0.2-1.9,0.3-3.2,0.3c-1.6,0-2.9-0.2-4-0.7
			c-1.1-0.4-1.9-1-2.5-1.8c-0.6-0.8-1.1-1.7-1.3-2.8c-0.3-1.1-0.4-2.3-0.4-3.7V30z"/>
	</g>
	<g>
		<path class="st3" d="M33.9,42.5C33.9,42.5,33.9,42.5,33.9,42.5c0,10.3,8.3,18.6,18.6,18.6c2.6,0,5.2-0.6,7.4-1.6
			c-0.1-0.7-0.1-1.4-0.1-2.1c0-1.6,0.2-3.2,0.6-4.7l-2.8-1.6c-1.5,0.9-3.2,1.4-5.1,1.4c-5.5,0-10-4.5-10-10c0,0,0-0.1,0-0.1H33.9z"
			/>
		<path class="st0" d="M52.5,32.5c2,0,3.8,0.6,5.3,1.6l-6.7,3.8l7.1,1.6l4,0.9l3.3,0.7l3,0.7l0.9,0.2l0.3-0.8l0.9-2.8l1.1-3.3
			l1.3-3.9l2.2-6.7l-6.7,3.8l-2.6,1.5c-1.7-1.7-3.6-3.1-5.8-4c-2.3-1-4.8-1.6-7.4-1.6c-10.2,0-18.5,8.3-18.6,18.5h8.6
			C42.5,37,47,32.5,52.5,32.5z"/>
	</g>
	<path class="st2" d="M90.5,13.7l-6,6c2.3,1.8,3.9,4.7,3.9,7.9c0,3.8-2.1,7.1-5.3,8.8l0.1-7.5l-4.9,5.3l-2.8,3l-2.2,2.4L71,42.1
		l-0.5,0.6l0.5,0.6l2,2.2l2.4,2.6l3,3.3l4.5,5l0.1-7.7l0-3.1c2.4-0.6,4.5-1.7,6.4-3.1c4.5-3.4,7.5-8.8,7.5-14.9
		C96.9,22.1,94.4,17.1,90.5,13.7z"/>
	<path class="st4" d="M78.3,9.1c-9.5,0-17.4,7.2-18.4,16.4c2.2,1,4.2,2.3,5.8,4l2.6-1.5c0-0.2,0-0.4,0-0.5c0-5.5,4.5-10,10-10
		c2.3,0,4.4,0.8,6.1,2.1l6-6C87.2,10.8,83,9.1,78.3,9.1z"/>
	<path class="st1" d="M78.3,67.6c-5.5,0-10-4.5-10-10c0-0.1,0-0.3,0-0.4L75,61l-2.6-8l-0.9-2.8L70.5,47l-1-3l-0.2-0.6l-0.6,0.1
		l-3.6,0.8l-3,0.7l-2.6,0.6l-8.4,1.9l6.5,3.7l2.8,1.6c-0.4,1.5-0.6,3.1-0.6,4.7c0,0.7,0,1.4,0.1,2.1c1,9.3,8.9,16.5,18.4,16.5
		c5.2,0,10-2.2,13.3-5.7l-6-6C83.9,66.4,81.2,67.6,78.3,67.6z"/>
	<path class="st5" d="M89.4,42.5C87.5,44,85.3,45,83,45.6l0,3.1c3.2,1.7,5.4,5,5.4,8.9c0,2.6-1,5-2.6,6.8l6,6
		c3.2-3.3,5.2-7.9,5.2-12.9C96.9,51.3,93.9,45.9,89.4,42.5z"/>
</g>
<g>
	<defs>
		<rect id="SVGID_1_" x="490.3" width="485.7" height="82"/>
	</defs>
	<clipPath id="SVGID_2_">
		<use xlink:href="#SVGID_1_"  style="overflow:visible;"/>
	</clipPath>
	<g class="st6">
		<g>
			<path class="st3" d="M658.2,39.2c0,0.1,0,0.2,0,0.3c0,41.9,34,75.9,75.9,75.9c10.8,0,21.1-2.3,30.4-6.4c-0.3-2.8-0.5-5.7-0.5-8.6
				c0-6.6,0.9-13.1,2.5-19.2l-11.5-6.5c-6.1,3.6-13.2,5.7-20.8,5.7c-22.6,0-40.9-18.3-40.9-40.9c0-0.1,0-0.2,0-0.3H658.2z"/>
			<path class="st0" d="M734.1-1.4c8,0,15.5,2.4,21.8,6.4l-27.5,15.6l29.2,6.4l16.4,3.6l13.4,3l12.1,2.7L803,37l1.1-3.5l3.7-11.5
				l4.4-13.5l5.2-16.1l8.9-27.4L799-19.5l-10.7,6.1c-6.8-6.9-14.9-12.6-23.9-16.5c-9.3-4.1-19.6-6.4-30.4-6.4
				c-41.8,0-75.7,33.8-75.9,75.6h35C693.3,16.7,711.6-1.4,734.1-1.4z"/>
		</g>
		<path class="st2" d="M889.6-78.6L865-54c9.6,7.5,15.8,19.1,15.8,32.3c0,15.6-8.7,29.1-21.5,36l0.4-30.5L839.8,5.3l-11.3,12.2
			l-9.1,9.8l-9.5,10.3l-2.1,2.3l2.1,2.3l8.2,9.1l9.6,10.8l12.1,13.6l18.4,20.6l0.4-31.5l0.2-12.7c9.7-2.5,18.6-6.8,26.4-12.6
			c18.6-13.8,30.6-36,30.6-60.9C915.8-44.2,905.6-64.7,889.6-78.6z"/>
		<path class="st4" d="M839.9-97.2c-39,0-71,29.4-75.4,67.2c9,3.9,17.1,9.6,23.9,16.5l10.7-6.1c0-0.7-0.1-1.4-0.1-2.2
			c0-22.6,18.3-40.9,40.9-40.9c9.5,0,18.2,3.3,25.1,8.7l24.6-24.6C876.3-90.2,858.9-97.2,839.9-97.2z"/>
		<path class="st1" d="M839.9,142.1c-22.6,0-40.9-18.3-40.9-40.9c0-0.5,0.1-1,0.1-1.6l27.3,15.5l-10.5-32.5l-3.7-11.4l-4.4-13.5
			l-4-12.3l-0.7-2.3l-2.3,0.5l-14.7,3.2l-12.4,2.7L762.8,52l-34.4,7.6l26.5,15l11.5,6.5c-1.6,6.1-2.5,12.6-2.5,19.2
			c0,2.9,0.2,5.8,0.5,8.6c4.3,37.9,36.4,67.3,75.4,67.3c21.4,0,40.7-8.9,54.5-23.1L870,128.8C862.5,137,851.8,142.1,839.9,142.1z"/>
		<path class="st5" d="M885.2,39.5c-7.8,5.8-16.7,10.1-26.4,12.6l-0.2,12.7c13.2,6.8,22.2,20.5,22.2,36.4c0,10.7-4.1,20.3-10.8,27.6
			l24.4,24.4c13.2-13.7,21.4-32.3,21.4-52.8C915.8,75.5,903.7,53.4,885.2,39.5z"/>
	</g>
</g>
</svg>
